<svg xmlns="http://www.w3.org/2000/svg" height="3341.84" width="4566.6">
  <path
    d="M1566.47 2994.44s49.16 45.88 56.8 0c7.652-45.88-20.748-58.988 0-61.174 20.76-2.187 91.76 36.053 98.32 39.319 6.548 3.282 37.135 1.415 37.135 1.415s19.665 8.786 26.224 40.827c6.549 32.04 5.456 70.28 13.109 101.96 7.639 31.68 41.505 39.32 41.505 39.32l52.427 15.292s21.855 15.294 56.815 34.96c34.945 19.654-24.041-8.746 56.8 61.174 80.825 69.907 99.4 60.08 117.97 37.133 18.576-22.933 79.029-74.28 79.029-74.28s31.293-2.186 78.268 2.187c46.972 4.374 29.493-9.826 61.173 4.374 31.68 14.2 51.345 19.653 69.92 41.506 18.56 21.84-45.882-9.827 18.56 21.84 64.454 31.68 71.013 41.52 101.6 30.587 30.587-10.92-20.761-8.733 30.587-10.92 51.334-2.187 32.76-2.187 51.334-2.187 18.572 0 31.68-3.28 31.68-28.4 0-25.12 22.933-57.893 32.773-58.986 9.826-1.094 44.785 29.493 63.36 28.4 18.56-1.094 114.697-83.014 146.374-83.014 31.677 0 37.144-15.293 65.541 6.547 28.397 21.853 31.677 48.067 61.168 48.067 29.49 0 49.17-20.76 61.168-30.587 12.026-9.827 25.117 19.666 17.492-24.027-7.653-43.693 2.187-56.8-17.492-74.28-19.651-17.48-44.797-38.24-54.608-45.88-9.84-7.653-61.168 103.774-43.704-58.987 17.493-162.76 14.213-311.32 15.306-345.187 1.094-33.866-21.865-46.974-19.679-76.468 2.187-29.493-11.998-99.4 74.287-190.066 86.286-90.667 213.023-179.147 240.327-179.147 27.304 0-4.373-2.187 41.488 0 45.89 2.172 41.517 10.921 74.288-17.479 32.77-28.4-1.094-54.628 63.354-89.573 64.476-34.96 215.209-134.362 260.006-161.67 44.768-27.317 137.613-65.546 137.613-65.546s7.653 49.162 30.584 65.547c22.96 16.388 105.965 49.147 124.55 41.508 18.558-7.653 26.211-54.628 34.958-56.8 8.718-2.187 34.929-15.295 56.794-21.855 21.838-6.545 66.635-32.773 93.939-58.986 27.304-26.214 15.306-83.014 15.306-83.014s33.835-82.468 67.727-77.279c33.864 5.172 16.371 25.933 52.422 27.027 36.05 1.093 48.048 35.038 45.862-27.268-2.159-62.306 2.186-95.08 6.56-101.628 4.373-6.56 0-109.238 0-109.238s175.878-90.667 166.038-128.907c-9.84-38.229-56.794-92.845-63.354-102.676-6.532-9.831-26.21 5.463-45.862-45.879-19.65-51.34-6.56-150.747-6.56-150.747s-8.746-41.508-74.287-80.833c-65.54-39.325-77.539-52.436-89.565-58.987-12.026-6.557-53.543-27.31-85.22-10.924-31.677 16.385-58.981 45.878-58.981 45.878s-30.584-71.004-45.89-61.173c-15.278 9.834-87.379 83.02-87.379 83.02s-15.278-18.57-32.77-30.585c-17.465-12.017-29.491-68.504-69.915-53.369-40.395 15.135-31.677 38.075-40.395 15.135-8.746-22.939-18.586-112.513-18.586-112.513l-32.77-41.508s10.932-81.929-13.12-113.606c-24.024-31.68-37.115-40.418-48.048-56.803-10.933-16.386-38.237-155.123-50.235-176.961-12.026-21.838-17.493-41.517-32.77-56.795-15.307-15.306-51.357-69.914-76.475-65.54-25.117 4.344-55.701 23.519-63.354-.253-7.653-23.8 9.811-57.664-30.612-52.197-40.395 5.466-95.004 49.758-102.657 52.197-7.653 2.439-60.102 19.903-65.569 15.53-5.438-4.373-22.93-61.168-30.556-85.192-7.653-24.052-22.959-79.754-48.076-72.1-25.118 7.652-75.38-8.747-111.43 30.583-36.023 39.33-45.863 80.847-45.863 80.847s-16.4-54.636-41.517-39.33c-25.117 15.278-52.421 39.33-67.727 76.446-15.278 37.144-62.261 81.94-63.355 117.99-1.093 36.05-8.746 71.008-15.278 72.101-6.587 1.094-22.959 0-21.865-34.957 1.093-34.957 9.84-80.847 4.373-93.938-5.467-13.12-19.68-17.493-19.68-17.493l-52.42-85.192s5.466-16.4-21.847-2.186c-27.307 14.184-58.99-28.398-58.99-28.398l-34.945-65.54s54.613-39.331-39.333 43.675c-93.933 83.033-111.415 113.617-122.347 144.201-10.92 30.584-4.36 46.983-41.506 93.938-37.135 46.984-67.722 69.914-67.722 69.914s-61.173 5.467-69.92 6.56c-8.732 1.093-22.933-6.56-52.427-2.186-29.49 4.373-64.453-5.467-72.092-13.12-7.653-7.653-37.48 26.211-28.027-32.77 9.452-58.982 12.732-62.261 12.732-74.288 0-11.998-14.199-72.072-26.225-87.378-12.015-15.278-36.042-48.049-34.948-63.355 1.093-15.306-36.053-122.335-50.252-122.335-14.202 0-135.455-20.773-139.814 0-4.374 20.744-72.107 54.608-72.107 54.608s-9.828 2.186-28.4-17.465c-18.572-19.679-99.4-120.177-133.266-122.364-33.869-2.186-85.2 2.187-98.308 0-13.106-2.186-24.039-16.37-48.066 10.933-24.027 27.304-53.52 29.491-58.986 72.101-5.467 42.61-7.653 92.845-6.56 100.498 1.093 7.653-.267 30.584-.267 30.584-47.787 49.142-46.708 14.185-47.787 49.142-1.094 34.957-14.202 49.17-30.587 57.916-16.388 8.718-27.32 11.998-26.228 32.77 1.094 20.745 18.426 5.439-.067 30.584-18.493 25.118-21.773 46.955-34.878 54.608-13.109 7.653-53.53 17.465-65.547 17.465-12.015 0-50.25 17.492-50.25 17.492s-4.367 25.118 0 34.958c4.371 9.84-28.4 66.631-34.953 74.278-6.554 7.645-61.171 26.217-61.171 26.217s-21.849-10.925-21.849 17.478c0 28.4 19.662 100.496 24.033 113.604 4.367 13.108 32.77 63.357 32.77 63.357 19.663 20.756 37.138 46.972 13.108 45.879-24.032-1.09-37.14-13.109-56.803-13.109-19.662 0-28.4-32.77-50.249-28.4-21.846 4.37-63.357 124.531-63.357 124.531s25.126 27.307 30.587 32.77c5.46 5.461 5.46-24.032 10.924 17.476 5.461 41.511 25.123 53.526 4.368 72.095-20.753 18.572-22.94 17.479-45.879 30.587-22.94 13.108-21.846 25.126-26.216 37.14-4.368 12.019-42.602 32.771-48.063 39.326-5.463 6.554-15.295-1.091-30.587 17.478-15.292 18.57-25.123 51.342-39.324 56.803-14.202 5.461-19.662 17.479-37.141-8.74-17.479-26.214 1.09-86.294-32.77-56.804-33.864 29.494-45.88 41.512-45.88 41.512s-25.125-1.094-37.14 0c-12.018 1.093-19.665-18.57-58.987 6.554-39.327 25.123-56.803 44.785-72.098 48.065-15.292 3.277-12.015 5.46-54.616 0-42.602-5.464-57.897-20.756-72.095-19.662-14.202 1.09-54.62 5.46-56.804 15.292-2.186 9.83-38.23 41.508-43.695 41.508-5.46 0 10.925-24.03-5.46 0-16.386 24.027-44.789 77.559-49.159 85.2-4.367 7.653-32.77-72.092-32.77-72.092s26.216-20.753-32.77 8.746c-58.988 29.494-80.835 36.04-91.759 39.32-10.924 3.28-67.726 2.186-78.65 28.4-10.924 26.213-29.493 26.213-8.739 50.251 20.755 24.027 26.217-9.84 20.755 24.027l-5.461 33.867s-8.74-2.187-8.74 22.934c0 25.134 3.278 53.534 4.37 67.733 1.092 14.201 6.348 39.08-20.312 65.961-26.66 26.892-60.523 66.214-58.339 73.853 2.185 7.653 74.281 83.028 74.281 83.028s65.542 5.453 76.466 10.919c10.922 5.466 39.325 20.761 48.064 30.587 8.739 9.825 12.016-14.199 15.293 26.213 3.276 40.427 1.091 43.695 2.184 67.733 1.092 24.027 5.462 72.096 5.462 72.096s-12.016 26.213-1.092 26.213c10.922 0 41.508-29.496 43.695-21.84 2.183 7.639 21.846 90.667 2.183 96.119-19.66 5.466-64.449 4.373-58.986 30.587 5.461 26.213 17.477 27.307 19.662 45.878 2.185 18.575 14.2 34.96-10.924 52.442-25.125 17.467-84.112 36.039-87.389 43.692-3.276 7.642-5.461 18.56-10.923 37.135-5.462 18.572-12.016 33.867-32.77 54.625-20.756 20.747-26.218 38.228-21.849 45.881 4.37 7.64-43.693 45.868-43.693 45.868s-2.185 46.972-2.185 74.279c0 27.32-30.586 48.068-30.586 48.068s6.554 32.773 0 52.438c-6.555 19.654 3.277 29.494 15.292 48.068 12.017 18.561 7.647 8.733 26.218 24.027 18.57 15.292 40.417 27.307 58.987 43.693 18.57 16.388 32.77 13.108 43.695 17.48 10.924 4.374 24.031 20.76 34.955 39.32 10.923 18.574 21.847 26.227 34.955 41.508 13.11 15.292 49.156 14.213 61.171 15.292 12.018 1.093 26.22-7.639 32.773-6.546 6.554 1.094 34.955-4.373 34.955-4.373s7.647-14.201 61.173-17.481c53.523-3.266 28.4-7.639 53.523-3.266 25.126 4.36 37.141 10.919 55.713 29.494 18.57 18.56 39.325 21.84 39.325 21.84l56.803-17.481c28.4 6.56 44.785 8.746 69.911 10.933 25.123 2.175 73.188-3.28 102.682 2.175 29.493 5.466 78.65-10.922 78.65-10.922s37.14 51.348 43.694 2.187c6.554-49.161 7.645-32.773 0-65.547-7.647-32.759-10.924-133.265-10.924-133.265s-58.987-29.494 24.032-2.187c83.02 27.318 95.035 19.665 113.607 43.692 18.569 24.041 29.493 31.68 50.246 39.333 20.755 7.642 54.62 2.187 54.62 2.187s71.004 19.654 87.389 34.948c16.385 15.292 61.17-18.56 74.279 15.292 13.108 33.867-2.184 39.333 26.216 37.147 28.403-2.187 37.138-16.386 78.658-6.56 41.505 9.84 50.24 1.093 67.719 32.773 17.481 31.68-8.732 19.668 39.322 56.8l48.065 37.147z"
    fill="none" stroke="white" stroke-width="40" stroke-miterlimit="10" /></svg>