<?xml version="1.0" standalone="no"?>
<!DOCTYPE svg PUBLIC "-//W3C//DTD SVG 20010904//EN"
 "http://www.w3.org/TR/2001/REC-SVG-20010904/DTD/svg10.dtd">
<svg version="1.0" xmlns="http://www.w3.org/2000/svg"
 width="708.000000pt" height="708.000000pt" viewBox="0 0 708.000000 708.000000"
 preserveAspectRatio="xMidYMid meet">
<metadata>
Created by potrace 1.11, written by Peter Selinger 2001-2013
</metadata>
<g transform="translate(0.000000,708.000000) scale(0.100000,-0.100000)"
fill="#000000" stroke="none">
<path d="M3315 6834 c-16 -2 -77 -9 -135 -15 -542 -55 -1108 -271 -1553 -591
-231 -166 -507 -427 -672 -633 -137 -172 -282 -399 -384 -603 -131 -260 -252
-635 -295 -907 -8 -55 -21 -136 -28 -180 -17 -108 -17 -662 0 -770 7 -44 20
-125 28 -180 53 -339 199 -747 382 -1070 151 -265 318 -484 546 -710 539 -537
1176 -850 1936 -951 63 -9 214 -18 335 -21 893 -22 1738 308 2383 932 548 529
885 1205 989 1980 24 182 24 628 0 810 -69 516 -242 991 -513 1405 -283 433
-659 790 -1116 1061 -494 294 -1092 452 -1685 448 -103 -1 -201 -4 -218 -5z
m736 -2684 c273 -465 568 -969 657 -1120 l160 -275 -1326 -5 -1327 -5 -180
-104 c-99 -57 -218 -126 -264 -153 l-83 -49 20 33 c58 97 1823 3160 1830 3175
4 10 9 -133 12 -317 l5 -335 496 -845z"/>
</g>
</svg>
